<svg width="16" height="16" viewBox="0 0 16 16" fill="none" xmlns="http://www.w3.org/2000/svg" fill="#FF5757">
<path fill-rule="evenodd" clip-rule="evenodd" d="M2.53759 4.1376C3.13768 3.53769 3.95147 3.20068 4.79999 3.20068C5.64852 3.20068 6.4623 3.53769 7.06239 4.1376L7.99999 5.0744L8.93759 4.1376C9.23278 3.83197 9.58589 3.58818 9.9763 3.42047C10.3667 3.25277 10.7866 3.16449 11.2115 3.1608C11.6364 3.15711 12.0578 3.23807 12.451 3.39897C12.8443 3.55987 13.2016 3.79748 13.5021 4.09793C13.8025 4.39839 14.0401 4.75568 14.201 5.14895C14.3619 5.54221 14.4429 5.96359 14.4392 6.38848C14.4355 6.81338 14.3472 7.23328 14.1795 7.62369C14.0118 8.01411 13.768 8.36721 13.4624 8.6624L7.99999 14.1256L2.53759 8.6624C1.93769 8.06231 1.60068 7.24852 1.60068 6.4C1.60068 5.55147 1.93769 4.73769 2.53759 4.1376Z"/>
</svg>
