<svg width="17" height="17" viewBox="0 0 17 17" fill="none" xmlns="http://www.w3.org/2000/svg" fill="#FFD990" stroke="#FFD990" stroke-linejoin="round">
<path d="M8.16335 2.77083C8.30106 2.4918 8.69895 2.4918 8.83666 2.77083L10.6193 6.38291C10.674 6.49371 10.7797 6.57051 10.902 6.58828L14.8882 7.16751C15.1961 7.21225 15.319 7.59066 15.0962 7.80786L12.2118 10.6195C12.1233 10.7057 12.083 10.83 12.1038 10.9518L12.7848 14.9218C12.8374 15.2285 12.5155 15.4624 12.24 15.3176L8.6747 13.4432C8.56533 13.3857 8.43467 13.3857 8.3253 13.4432L4.75996 15.3176C4.48455 15.4624 4.16265 15.2285 4.21525 14.9218L4.89617 10.9518C4.91705 10.83 4.87668 10.7057 4.7882 10.6195L1.90378 7.80786C1.68096 7.59066 1.80391 7.21225 2.11184 7.16751L6.09801 6.58828C6.22029 6.57051 6.32599 6.49371 6.38068 6.38291L8.16335 2.77083Z"/>
</svg>
