<svg width="24" height="24" viewBox="0 0 24 24" fill="none" xmlns="http://www.w3.org/2000/svg" stroke="currentColor" stroke-width="2" stroke-linejoin="round">
<path fill-rule="evenodd" clip-rule="evenodd" d="M3.80638 6.20641C4.70651 5.30655 5.92719 4.80104 7.19998 4.80104C8.47276 4.80104 9.69344 5.30655 10.5936 6.20641L12 7.61161L13.4064 6.20641C13.8492 5.74796 14.3788 5.38229 14.9644 5.13072C15.5501 4.87916 16.1799 4.74675 16.8172 4.74121C17.4546 4.73567 18.0866 4.85712 18.6766 5.09847C19.2665 5.33982 19.8024 5.69623 20.2531 6.14691C20.7038 6.5976 21.0602 7.13353 21.3015 7.72343C21.5429 8.31333 21.6643 8.9454 21.6588 9.58274C21.6532 10.2201 21.5208 10.8499 21.2693 11.4356C21.0177 12.0212 20.652 12.5508 20.1936 12.9936L12 21.1884L3.80638 12.9936C2.90651 12.0935 2.401 10.8728 2.401 9.60001C2.401 8.32722 2.90651 7.10654 3.80638 6.20641V6.20641Z"/>
</svg>
