<svg width="25" height="24" viewBox="0 0 25 24" fill="none" xmlns="http://www.w3.org/2000/svg" fill="currentColor">
<path fill-rule="evenodd" clip-rule="evenodd" d="M4.71592 6.20641C5.61605 5.30655 6.83673 4.80104 8.10952 4.80104C9.38231 4.80104 10.603 5.30655 11.5031 6.20641L12.9095 7.61161L14.3159 6.20641C14.7587 5.74796 15.2884 5.38229 15.874 5.13072C16.4596 4.87916 17.0895 4.74675 17.7268 4.74121C18.3641 4.73567 18.9962 4.85712 19.5861 5.09847C20.176 5.33982 20.7119 5.69623 21.1626 6.14691C21.6133 6.5976 21.9697 7.13353 22.2111 7.72343C22.4524 8.31333 22.5739 8.9454 22.5683 9.58274C22.5628 10.2201 22.4304 10.8499 22.1788 11.4356C21.9272 12.0212 21.5616 12.5508 21.1031 12.9936L12.9095 21.1884L4.71592 12.9936C3.81606 12.0935 3.31055 10.8728 3.31055 9.60001C3.31055 8.32722 3.81606 7.10654 4.71592 6.20641Z"/>
</svg>
