<svg viewBox="0 0 17 17" xmlns="http://www.w3.org/2000/svg" fill="currentColor" stroke="currentColor" stroke-linejoin="round">
<path d="M7.81818 2.30928C7.95589 2.03025 8.35378 2.03025 8.49149 2.30928L10.2742 5.92136C10.3288 6.03217 10.4345 6.10896 10.5568 6.12673L14.543 6.70596C14.8509 6.7507 14.9739 7.12912 14.7511 7.34631L11.8666 10.1579C11.7782 10.2442 11.7378 10.3684 11.7587 10.4902L12.4396 14.4603C12.4922 14.767 12.1703 15.0008 11.8949 14.856L8.32953 12.9816C8.22016 12.9241 8.0895 12.9241 7.98013 12.9816L4.4148 14.856C4.13938 15.0008 3.81748 14.767 3.87008 14.4603L4.551 10.4902C4.57189 10.3684 4.53151 10.2442 4.44303 10.1579L1.55861 7.34631C1.33579 7.12912 1.45874 6.7507 1.76667 6.70596L5.75284 6.12673C5.87512 6.10896 5.98083 6.03217 6.03551 5.92136L7.81818 2.30928Z"/>
</svg>
