<svg width="18" height="19" viewBox="0 0 18 19" fill="none" xmlns="http://www.w3.org/2000/svg" stroke="currentColor" stroke-width="1.5" stroke-linejoin="round">
<path fill-rule="evenodd" clip-rule="evenodd" d="M2.85481 5.15482C3.52991 4.47993 4.44542 4.10079 5.40001 4.10079C6.3546 4.10079 7.27011 4.47993 7.94521 5.15482L9.00001 6.20872L10.0548 5.15482C10.3869 4.81099 10.7841 4.53673 11.2234 4.34806C11.6626 4.15939 12.135 4.06008 12.613 4.05592C13.091 4.05177 13.565 4.14285 14.0074 4.32387C14.4499 4.50488 14.8518 4.77219 15.1898 5.1102C15.5278 5.44822 15.7952 5.85016 15.9762 6.29259C16.1572 6.73502 16.2483 7.20906 16.2441 7.68707C16.24 8.16507 16.1406 8.63747 15.952 9.07668C15.7633 9.51589 15.489 9.91313 15.1452 10.2452L9.00001 16.3913L2.85481 10.2452C2.17992 9.57012 1.80078 8.65461 1.80078 7.70002C1.80078 6.74543 2.17992 5.82992 2.85481 5.15482V5.15482Z"/>
</svg>
